<?xml version="1.0" standalone="no"?>
<!DOCTYPE svg PUBLIC "-//W3C//DTD SVG 20010904//EN"
 "http://www.w3.org/TR/2001/REC-SVG-20010904/DTD/svg10.dtd">
<svg version="1.0" xmlns="http://www.w3.org/2000/svg"
 width="596.000000pt" height="596.000000pt" viewBox="0 0 596.000000 596.000000"
 preserveAspectRatio="xMidYMid meet">
<metadata>
Created by potrace 1.14, written by Peter Selinger 2001-2017
</metadata>
<g transform="translate(0.000000,596.000000) scale(0.100000,-0.100000)"
fill="#000000" stroke="none">
<path d="M1395 5953 c-11 -2 -27 -7 -35 -10 -8 -3 -31 -7 -50 -9 -120 -11
-282 -49 -341 -80 -15 -7 -29 -10 -33 -7 -3 4 -6 1 -6 -5 0 -7 -7 -12 -16 -12
-42 0 -320 -166 -394 -235 -70 -66 -160 -160 -160 -168 0 -4 -4 -6 -9 -3 -5 3
-14 -8 -21 -24 -7 -17 -16 -30 -20 -30 -4 0 -25 -27 -46 -60 -22 -33 -43 -60
-47 -60 -5 0 -5 -4 -2 -10 3 -5 1 -10 -4 -10 -6 0 -11 -8 -11 -19 0 -10 -7
-24 -15 -31 -8 -7 -15 -17 -15 -22 0 -6 -9 -22 -20 -38 -11 -15 -17 -30 -13
-34 3 -3 2 -6 -4 -6 -6 0 -16 -20 -22 -44 -6 -25 -16 -48 -21 -51 -6 -4 -8
-11 -5 -16 4 -5 1 -9 -4 -9 -6 0 -10 -3 -9 -7 2 -9 -21 -94 -30 -107 -3 -5 -7
-27 -9 -48 -2 -22 -7 -48 -13 -57 -5 -10 -7 -28 -5 -40 2 -11 0 -21 -5 -21
-12 0 -8 -3462 4 -3505 4 -16 9 -40 10 -53 2 -12 6 -25 9 -29 4 -3 7 -17 7
-29 0 -13 4 -33 9 -46 12 -30 24 -61 26 -70 2 -5 4 -10 5 -13 1 -3 3 -8 5 -12
13 -47 126 -273 137 -273 4 0 8 -6 8 -13 0 -7 14 -27 30 -45 16 -18 30 -36 30
-39 0 -26 250 -283 276 -283 8 0 14 -4 14 -8 0 -7 62 -52 119 -87 9 -5 18 -12
21 -15 3 -3 23 -14 45 -25 22 -11 43 -24 47 -30 4 -5 8 -7 8 -3 0 4 23 -4 50
-18 28 -14 60 -27 71 -29 12 -2 27 -9 35 -16 8 -6 14 -8 14 -4 0 4 6 3 12 -3
7 -6 33 -14 58 -19 25 -4 905 -8 1956 -8 1605 0 1914 2 1927 14 10 7 17 10 17
6 0 -4 7 -2 15 5 8 7 15 9 15 5 0 -4 7 -2 15 5 8 6 19 9 25 5 5 -3 10 -1 10 5
0 7 7 10 15 6 8 -3 15 -1 15 4 0 5 11 12 25 16 14 3 25 10 25 15 0 5 3 8 8 7
6 -2 45 17 132 64 99 53 289 207 345 281 6 7 28 35 50 62 78 96 185 267 185
295 0 5 4 10 10 10 5 0 7 7 4 15 -4 8 -1 15 5 15 6 0 8 7 5 15 -4 8 -2 15 4
15 6 0 18 24 28 53 9 28 20 54 23 57 3 3 7 14 9 25 5 35 9 59 21 115 8 41 10
526 8 1870 -2 998 -5 1821 -7 1828 -2 6 -8 12 -13 12 -5 0 -6 7 -3 16 4 9 1
23 -5 30 -6 8 -8 14 -4 14 4 0 3 6 -2 13 -6 6 -13 26 -17 42 -4 17 -15 46 -23
65 -49 109 -77 166 -83 170 -4 3 -15 21 -25 40 -23 44 -104 160 -127 181 -10
9 -18 20 -18 24 0 10 -156 161 -206 200 -21 17 -45 37 -54 45 -9 9 -30 22 -48
29 -18 7 -32 17 -32 21 0 4 -18 15 -40 25 -22 10 -40 22 -40 27 0 4 -3 7 -7 6
-11 -2 -31 7 -198 82 -22 10 -59 21 -82 25 -24 4 -43 11 -43 16 0 6 -5 7 -10
4 -6 -4 -27 -1 -48 6 -20 7 -48 14 -62 16 -54 5 -108 12 -165 22 -59 11 -3154
14 -3200 4z m1773 -2082 c1 -1 4 -1 7 -2 2 0 28 -9 57 -20 29 -10 63 -19 76
-19 30 0 37 -21 22 -73 -6 -23 -12 -49 -14 -57 -1 -9 -5 -20 -8 -26 -4 -5 -14
-41 -23 -79 -9 -38 -22 -89 -30 -113 -8 -23 -14 -46 -13 -50 0 -4 -2 -14 -5
-22 -7 -17 -35 -121 -43 -159 -3 -13 -10 -33 -15 -43 -6 -11 -8 -22 -5 -25 3
-4 1 -12 -5 -19 -6 -8 -9 -20 -6 -29 4 -8 2 -17 -2 -20 -5 -2 -12 -22 -16 -42
-4 -21 -10 -42 -13 -48 -8 -13 -13 -35 -13 -57 0 -10 -5 -18 -11 -18 -6 0 -9
-3 -6 -6 4 -3 -5 -47 -19 -97 -14 -51 -27 -101 -30 -112 -8 -38 -11 -50 -13
-50 -2 0 -2 0 -26 -95 -8 -36 -18 -72 -21 -80 -4 -8 -5 -21 -4 -27 1 -7 -3
-13 -8 -13 -5 0 -10 -8 -10 -17 -1 -30 -7 -58 -15 -71 -4 -6 -5 -16 -1 -21 3
-5 1 -12 -4 -15 -7 -5 -12 -23 -21 -71 -1 -2 -6 -19 -11 -37 -10 -31 -17 -61
-22 -83 -2 -5 -6 -15 -9 -21 -4 -5 -10 -34 -14 -62 l-7 -53 -36 5 c-47 6 -64
10 -77 18 -6 4 -30 10 -53 14 -23 4 -45 12 -48 18 -10 15 -12 56 -3 56 6 0 20
54 35 130 1 3 7 25 14 50 7 25 15 52 16 60 2 8 13 47 25 85 12 39 21 77 21 85
1 8 3 22 6 30 4 8 7 17 7 20 10 39 39 149 44 160 3 8 6 20 7 25 1 6 3 13 5 18
1 4 3 10 4 15 1 4 8 25 14 46 6 22 9 42 7 45 -3 2 -1 9 4 15 8 10 35 114 33
126 0 3 3 10 7 15 4 6 7 17 6 25 0 8 3 18 8 21 4 3 9 17 11 30 1 14 5 29 8 34
3 6 9 28 13 50 4 22 10 45 13 50 4 6 7 21 8 35 1 14 3 26 4 28 1 1 3 5 5 10 1
4 4 14 8 22 5 12 25 86 52 190 2 8 4 17 5 20 1 3 3 10 5 15 1 6 3 12 5 15 1 3
4 14 6 25 1 11 12 54 24 95 11 41 23 84 25 95 11 50 29 66 63 56z m-794 -147
c9 -8 16 -19 16 -24 0 -5 23 -33 50 -63 55 -60 57 -78 9 -103 -16 -8 -29 -19
-29 -24 0 -6 -3 -9 -7 -7 -5 1 -18 -7 -29 -18 -52 -48 -85 -75 -92 -75 -4 0
-21 -13 -38 -28 -17 -15 -46 -38 -64 -52 -18 -14 -38 -30 -44 -35 -6 -6 -25
-21 -43 -33 -17 -12 -46 -35 -65 -52 -18 -16 -36 -30 -40 -30 -4 0 -18 -10
-31 -23 -44 -42 -89 -77 -98 -77 -5 0 -9 -4 -9 -8 0 -5 -18 -21 -41 -38 -22
-16 -46 -34 -52 -40 -7 -6 -22 -16 -35 -23 -12 -6 -22 -16 -22 -20 0 -5 35
-37 78 -71 42 -33 89 -71 103 -83 15 -12 37 -29 49 -37 12 -8 28 -21 36 -27 7
-7 15 -13 19 -13 3 0 20 -13 38 -29 78 -71 103 -91 120 -97 9 -3 17 -9 17 -13
0 -4 21 -23 48 -42 49 -35 83 -63 111 -90 9 -8 48 -39 88 -67 41 -30 70 -59
69 -68 -1 -8 -22 -38 -47 -66 -24 -27 -50 -61 -57 -74 -15 -29 -39 -31 -67 -4
-47 45 -66 60 -74 60 -5 0 -11 4 -13 8 -1 4 -23 23 -48 42 -24 19 -51 41 -58
48 -8 7 -30 25 -50 40 -21 15 -42 32 -48 37 -7 6 -25 20 -40 32 -118 91 -300
238 -302 245 -2 4 -8 8 -13 8 -7 0 -126 91 -175 135 -6 6 -29 24 -50 40 -21
17 -52 42 -69 58 l-30 27 25 20 c50 40 66 53 113 88 26 20 47 40 47 44 0 4 5
8 11 8 11 0 82 53 117 87 7 7 41 34 75 60 34 26 64 50 67 53 3 3 37 30 75 60
39 30 75 59 81 65 7 5 24 19 40 30 15 11 44 34 65 50 20 17 56 46 80 65 24 19
54 45 66 56 12 12 24 19 27 16 3 -3 6 0 6 6 0 7 4 12 10 12 9 0 51 32 74 57
15 17 32 16 50 -3z m1354 -55 c48 -38 100 -80 116 -92 16 -12 39 -31 51 -42
12 -11 38 -31 58 -45 20 -14 37 -28 37 -32 0 -5 6 -8 14 -8 8 0 16 -4 18 -9 2
-4 75 -65 163 -134 88 -69 169 -134 180 -144 19 -18 91 -75 155 -123 18 -14
38 -30 44 -35 6 -6 23 -18 39 -28 15 -10 27 -24 27 -31 0 -8 -29 -35 -65 -61
-36 -25 -77 -57 -90 -71 -14 -14 -25 -22 -25 -18 0 5 -6 1 -12 -7 -16 -18
-100 -88 -134 -110 -13 -8 -39 -30 -59 -47 -19 -18 -37 -32 -40 -32 -3 0 -13
-8 -23 -17 -10 -10 -33 -29 -52 -43 -32 -24 -122 -96 -204 -163 -21 -18 -44
-34 -50 -36 -11 -4 -14 -7 -57 -44 -15 -12 -46 -38 -69 -57 -24 -19 -58 -50
-77 -67 -19 -18 -38 -33 -42 -33 -5 0 -17 12 -27 26 -10 15 -38 50 -61 80 -24
29 -43 61 -43 71 0 10 16 29 35 42 19 13 35 27 35 32 0 5 5 9 10 9 10 0 22 8
55 38 8 7 15 11 15 8 0 -2 13 8 28 22 38 37 79 72 127 107 63 47 65 49 86 68
10 9 21 17 24 17 3 0 16 10 29 23 12 12 35 31 50 42 65 47 152 119 159 131 5
8 12 12 18 9 5 -4 9 -2 9 3 0 6 20 23 45 39 25 15 45 33 45 40 0 6 -19 25 -42
42 -24 17 -54 39 -67 48 -21 16 -240 190 -325 259 -16 13 -43 34 -60 46 -16
13 -46 37 -66 54 -19 17 -53 44 -75 60 -22 16 -53 41 -70 57 -16 15 -38 30
-47 33 -21 6 -24 39 -5 59 6 7 21 25 32 41 11 15 26 33 33 41 7 7 11 13 8 13
-3 0 2 9 11 20 10 11 23 20 30 20 7 0 52 -32 101 -71z"/>
</g>
</svg>
